<svg width="150" height="150" viewBox="0 0 200 200" xmlns="http://www.w3.org/2000/svg"><title>electricity</title><path d="M142.533 46.064a1.875 1.875 0 0 0-.948-1.454l-20.949-11.777a1.87 1.87 0 0 0-2.325.408l-60.395 69.924a1.883 1.883 0 0 0-.275 2.038c.32.672.97 1.113 1.75 1.066l37.218-1.242-21.4 32.32-4.713-8.732a1.864 1.864 0 0 0-1.903-.965 1.87 1.87 0 0 0-1.567 1.451l-8.203 37.022a1.88 1.88 0 0 0 .658 1.873 1.856 1.856 0 0 0 1.967.23L95.5 152.06a1.876 1.876 0 0 0 1.064-1.841 1.873 1.873 0 0 0-1.335-1.655l-9.542-2.823 49.453-56.41a1.88 1.88 0 0 0 .3-2.014 1.87 1.87 0 0 0-1.704-1.103H96.852l45.032-38.537c.465-.398.708-1 .649-1.612z" fill="#DDDEE3" fill-rule="evenodd"/></svg>
