<svg width="150" height="150" viewBox="0 0 200 200" xmlns="http://www.w3.org/2000/svg"><title>mind</title><g fill="#DDDEE3" fill-rule="evenodd"><path d="M126.898 58.394c-3.625 0-6.578 2.948-6.578 6.61 0 3.654 2.953 6.601 6.578 6.601 3.637 0 6.579-2.947 6.579-6.601 0-3.662-2.942-6.61-6.579-6.61zM125.352 112.538a6.609 6.609 0 0 0 6.608 6.609c3.625 0 6.567-2.954 6.567-6.609 0-3.651-2.942-6.605-6.567-6.605a6.607 6.607 0 0 0-6.608 6.605zM77.192 51.226c-3.648 0-6.602 2.96-6.602 6.62a6.599 6.599 0 0 0 6.602 6.603 6.597 6.597 0 0 0 6.603-6.603c0-3.66-2.948-6.62-6.603-6.62z"/><path d="M106.956 18c-28.358 0-54.51 21.325-59.945 44.826-1.23 5.223-2.578 18.867-2.578 18.867l-13.057 32.938a5.04 5.04 0 0 0-.376 1.961c0 2.777 2.271 5.046 5.055 5.046h8.378v17.498c0 13.646 11.036 24.698 24.639 24.698h9.793V183h66.683v-53.14c14.544-11.46 23.882-29.264 23.882-49.24 0-34.588-27.978-62.62-62.474-62.62zM59.782 94.176c-3.822 0-6.949-3.13-6.949-7.003 0-3.85 3.125-6.975 6.95-6.975 3.858 0 7 3.125 7 6.975a7.001 7.001 0 0 1-7 7.003zm92.227-9.46l-6.499 6.513-7.927-5.607a22.24 22.24 0 0 1-4.805 1.86l-1.462 8.639h3.027l.809 4.618c.318.086.637.132.95.246.814.302 1.565.69 2.265 1.135l3.655-2.572 2.997 3-2.691 3.826c.581 1.026 1.036 2.12 1.291 3.277l4.411.759v4.249l-4.592.792c-.092.323-.137.65-.25.968a11.84 11.84 0 0 1-1.148 2.294l2.58 3.643-3.002 3.005-3.798-2.703c-1.03.582-2.116 1.038-3.278 1.293l-.774 4.426h-4.24l-.764-4.619c-.329-.092-.658-.137-.984-.257a12.08 12.08 0 0 1-2.277-1.138l-3.66 2.598-2.982-3.01 2.698-3.82c-.582-1.032-1.036-2.12-1.292-3.283l-4.434-.77v-4.23l4.634-.793c.09-.325.136-.651.255-.975.296-.81.682-1.562 1.126-2.27l-2.582-3.667 2.993-3 3.82 2.703c1.022-.575 2.109-1.03 3.264-1.293l.66-3.838h-7.985l-1.668-9.582c-.36-.113-.718-.206-1.076-.343a22.847 22.847 0 0 1-3.625-1.732l-7.65 5.4-6.488-6.519 5.583-7.915a22.425 22.425 0 0 1-1.866-4.83l-9.199-1.585v-7.567l-4.631.8c-.074.223-.093.45-.177.667-.303.821-.695 1.574-1.121 2.303l3.55 5.04-4.275 4.271-5.213-3.683c-.968.502-1.968.913-3.022 1.192l-1.054 6.043-6.004.005-1.094-6.306c-.21-.074-.433-.09-.644-.171-.825-.309-1.587-.708-2.32-1.14l-5.048 3.563-4.258-4.276 3.693-5.24a15.33 15.33 0 0 1-1.148-3.007l-6.075-1.043v-6.05l6.26-1.078c.07-.223.12-.439.2-.655.303-.827.702-1.584 1.128-2.315l-3.557-5.04 4.252-4.273 5.236 3.69a14.8 14.8 0 0 1 3.034-1.2l1.053-6.049h6.005l1.095 6.31c.218.07.44.086.65.165.826.309 1.582.71 2.316 1.135l5.032-3.552 4.274 4.272-3.699 5.233c.502.964.91 1.967 1.184 3.023l6.033 1.038v4.397l7.901-1.358c.114-.36.205-.717.341-1.077a22.207 22.207 0 0 1 1.75-3.661l-5.43-7.635 6.53-6.526 7.917 5.607a22.633 22.633 0 0 1 4.823-1.866l1.553-9.22h9.202l1.669 9.573c.359.107.718.206 1.075.337a22.667 22.667 0 0 1 3.619 1.74l7.654-5.4 6.477 6.512-5.583 7.943a22.863 22.863 0 0 1 1.854 4.802l9.217 1.59v9.222l-9.562 1.649c-.114.36-.206.72-.336 1.072a22.855 22.855 0 0 1-1.75 3.639l5.404 7.662z"/></g></svg>
