<svg width="150" height="150" viewBox="0 0 200 200" xmlns="http://www.w3.org/2000/svg"><title>new</title><g fill="#DDDEE3" fill-rule="evenodd"><path d="M121.433 118.501c-11.346 0-20.575 9.23-20.575 20.576 0 11.347 9.229 20.576 20.575 20.576 11.347 0 20.576-9.23 20.576-20.576-.005-11.346-9.234-20.576-20.575-20.576zm0 34.293c-7.562 0-13.717-6.155-13.717-13.717 0-7.563 6.155-13.717 13.717-13.717 7.563 0 13.717 6.154 13.717 13.717 0 7.563-6.154 13.717-13.717 13.717z"/><path d="M130.002 135.645h-5.142v-5.143a3.427 3.427 0 0 0-6.853 0v5.143h-5.142a3.427 3.427 0 0 0 0 6.853h5.142v5.142a3.427 3.427 0 0 0 6.853 0v-5.142h5.143a3.427 3.427 0 0 0 0-6.853z"/><path d="M132.428 68.072L106.71 42.354a3.426 3.426 0 0 0-2.425-1.006H61.423a3.427 3.427 0 0 0-3.426 3.426v102.872a3.427 3.427 0 0 0 3.426 3.427h34.292a3.427 3.427 0 0 0 0-6.854h-30.86V48.206h38.016l23.71 23.71v41.443a3.427 3.427 0 0 0 6.853 0V70.497c0-.913-.363-1.782-1.006-2.425z"/></g></svg>
