<svg width="150" height="150" viewBox="0 0 200 200" xmlns="http://www.w3.org/2000/svg"><title>position</title><g transform="translate(14 40)"><circle cx="24.9" cy="51.1" r="10.9"/><path d="M3.3 80.7s6.2-16.3 13.5-17.9c7.3-1.6 10.3 2.5 10.3 6s.7 5.5-4 9.4l2.6 7.1s3-3.1 5.7-2.9c2.7.2 8.4 3.4 5.2 9.6-3.2 6.2-12.7 23.2-12.7 23.2s-3.8 5.7-8.7 2.9c-4.8-2.9-1.4-9.7-1.4-9.7l1.6-2.6s-3.4 3.1-9.1.2c-5.5-2.8-9.1-6.3-3-25.3z"/><path d="M18.9 71.2s2.8 14.8 18.8 37" stroke-width="6"/><path d="M45.3 58.4l51 10.7-11 51.3-50.8-10.8z"/><ellipse cx="107" cy="11.5" rx="11.2" ry="10.8"/><path d="M99.9 48.4s-3.7-22.5 9.4-24.5c13.2-2 6.1 13.3 8.9 24 2.9 10.7 6.5 20.1 7.5 31.3s.9 17.9-1.1 25.8c-2 7.9-2.9 15.5-11.2 13.5-8.3-2-1.6-13-.6-20.2 1.1-7.2 1.6-18.3-2-29.1 0 .1-7.3-.3-10.9-20.8z"/><path d="M108.6 34.1s2 17.8 24.8 32.5" stroke-width="6"/><path d="M119.9 28.9l51-8.8 9.1 51.3-51.2 9.1z"/></g></svg>
