<svg width="150" height="150" viewBox="0 0 200 200" xmlns="http://www.w3.org/2000/svg"><title>truck</title><g transform="translate(12 40)"><path d="M56.872 26.993l-3.607-.32a6.428 6.428 0 0 0-7.436-5.234c-3.496.61-6.307 3.317-4.94 8.49l1.497-.26 1.215 1.476a4.889 4.889 0 0 0 5.448 3.182 4.893 4.893 0 0 0 4.016-5.42l3.83-1.172-.023-.742zM66.334 77.38l-9.238-11.92a4.06 4.06 0 0 0-3.493-1.565l-9.068.62c-1.038-4.888-.41-9.869.608-13.903l5.01 2.092a4.069 4.069 0 0 0 2.709.152l8.791-2.568a4.07 4.07 0 0 0-2.281-7.814l-7.41 2.164-4.101-1.712c.271-.584.448-.919.466-.954a4.072 4.072 0 0 0-1.632-5.516 4.067 4.067 0 0 0-5.519 1.632c-.37.68-9.007 16.861-3.46 32.105a4.068 4.068 0 0 0 4.101 2.669l10.18-.697 7.908 10.203a4.063 4.063 0 0 0 5.707.722 4.069 4.069 0 0 0 .722-5.71z"/><ellipse cx="9.037" cy="111.477" rx="9.037" ry="9.042"/><ellipse cx="77.495" cy="108.027" rx="12.486" ry="12.493"/><path d="M59.832 9.807c-.655-.653-2.647-2.642-11.664-1.487-4.185.535-7.887 1.48-8.042 1.519 0 0-14.1 3.254-24.583 11.574-3.989 3.164-4.095 42.822-3.851 64.383h-6.27v14.468h7.243l12.691 12.484h26.501l24.42-22.25V42.8c-1.373-4.504-12.952-29.504-16.445-32.993zM37.957 94.84L25.303 30.817s-2.531-6.511 8.315-10.49l9.399-4.703-1.51-3.023c1.22-.287 4.047-.915 7.07-1.3 6.985-.892 8.751.261 9.127.635 2.305 2.303 10.187 18.633 15.214 31.069-2.498.614-5.597 2.523-6.358 8.09l4.06 34.309-32.663 9.435zM86.093 84.668V40.9h-3.13V.004h-3.128v88.335s.116 3.252 3.367 3.326l2.893-.116v4.386H177V84.666H86.093v.002zm0 .518v.635c-.05-.356 0-.635 0-.635zm5.43 8.081v-1.932l37.007-1.476v3.408H91.523zm80.045 0h-37.005v-3.648l1.31-.051 5.84-2.23h29.857v5.929h-.002z"/><path d="M107.512 47.79H93.346v34.4h16.431v-25.8h-2.265zM114.42 47.79v8.6h-3.016v25.8h17.183v-34.4zM147.012 47.79h-14.166v34.4h16.432v-25.8h-2.266zM153.921 47.79v8.6h-3.019v25.8h17.185v-34.4z"/></g></svg>
