<svg width="150" height="150" viewBox="0 0 200 200" xmlns="http://www.w3.org/2000/svg"><title>gaz</title><g><g transform="translate(26 64.846)"><path d="M123.682 104.38c4.995-2.522 6.987-8.615 4.472-13.588-2.507-4.979-8.603-6.987-13.602-4.457-4.981 2.54-6.977 8.616-4.46 13.596 2.525 4.972 8.615 6.976 13.59 4.45z"/><path d="M125.68 109.43h-19.43l-.148-16.172c-.144-6.053-1.054-10.49-3.943-14.187-2.605-3.347-5.233-7.405-16.381-10.795-16.636-5.083-26.518.462-31.4 4.286-7.623 5.973-23.863 35.794-23.863 35.794H5.992c-3.224 0-5.842 2.553-5.842 5.692 0 3.152 2.615 5.695 5.842 5.695h29.4c1.722 0 3.422-.743 4.577-2.158l18.373-22.553L71.76 108.44H53.816c-3.214 0-5.825 2.546-5.825 5.672 0 3.145 2.611 5.685 5.825 5.685h30.007c2.31 0 4.395-1.325 5.34-3.39.645-1.446.692-3.306.093-4.725-.167-1.997-14.047-23.56-14.047-23.56 1.617-.054 3.31.094 5.011.642 4.932 1.536 8.45 4.735 8.457 4.735 0 0 .602.57.89.87l5.698 21.185c.362 1.1 1.791 4.243 5.635 4.243h24.784c3.214 0 5.815-1.918 5.815-5.043 0-3.139-2.605-5.324-5.819-5.324z"/><ellipse cx="64.589" cy="5.254" rx="4.309" ry="4.306"/><ellipse cx="75.537" cy="5.254" rx="4.305" ry="4.303"/></g><path d="M166.016 56.535c-9.93-7.71-22.08-6.314-28.715-5.347-.05-6.013-1.278-17.346-8.992-25.374-6.274-6.515-14.318-9.86-25.992-9.031-11.975.843-19.893 11.467-21.955 19.398-2.806-2.57-6.522-4.153-10.623-4.153-8.758 0-15.855 7.097-15.855 15.847 0 .208.033.405.043.613-2.243-.72-4.58-1.188-6.612-1.228-5.925-.17-11.346 2.024-15.333 6.04-4.188 4.212-6.394 10.205-6.217 16.874.268 9.738 7.078 16.902 17.084 18.802.027-1.509.15-3.045.446-4.6a2.075 2.075 0 0 1 2.413-1.647 2.068 2.068 0 0 1 1.65 2.416c-1.134 6.016.161 11.718 3.643 16.068 3.512 4.387 8.926 7.014 14.848 7.218 5.972.194 14.83-1.988 18.69-5.572a2.074 2.074 0 0 1 1.691-.532 2.07 2.07 0 0 1 1.48.978c9.558 15.686 24.76 20.07 39.679 11.427 7.552-4.374 13.21-18.29 11.007-27.08a2.07 2.07 0 0 1 1.507-2.51c1.081-.281 2.226.398 2.507 1.502.91 3.64.743 7.877-.217 12.08 5.447 1.485 12.778 1.428 18.77-1.172 5.585-2.415 13.185-7.686 13.74-20.05.402-9.161-2.952-16.51-8.687-20.967zm-103.1 8.617c.439-1.051 1.252-1.874 2.581-2.46l.322-.502-.178-.461a4.326 4.326 0 0 1 .017-3.236c.663-1.616 2.303-2.697 4.078-2.697a4.02 4.02 0 0 1 1.587.324 4.278 4.278 0 0 1 2.356 2.323c.449 1.074.456 2.258-.107 3.64l-.204.489 4.895 1.897c-.128.827-.235 1.656-.235 2.51 0 1.144.11 2.308.332 3.466l-6.602-2.593-.61.114-.197.475c-.86 2.098-3.549 3.222-5.655 2.372a4.356 4.356 0 0 1-2.356-2.342 4.291 4.291 0 0 1-.024-3.32zM73.84 86.089l-.335.515.194.468c.908 2.212-.157 4.755-2.373 5.669-2.206.873-4.8-.281-5.665-2.376-.421-1.024-.428-2.178.104-3.55l-.114-.593-.452-.2a4.369 4.369 0 0 1-2.28-2.31 4.323 4.323 0 0 1 .017-3.325 4.307 4.307 0 0 1 2.354-2.343 4.277 4.277 0 0 1 1.597-.32c1.777 0 3.414 1.08 4.205 3l.197.46 9.756-4.043c.997 1.429 2.413 2.948 3.863 4.15L73.84 86.088zm29.541-6.693v7.994h-3.488v-4.972h-2.357v4.972h-2.983v-4.972H92.14v4.972h-3.421v-7.994c-4.382-2.536-7.329-7.26-7.329-12.668 0-8.085 6.562-14.64 14.667-14.64 8.092 0 14.66 6.555 14.66 14.64-.003 5.414-2.956 10.122-7.335 12.668zm24.282 4.31c-.428 1.034-1.242 1.857-2.578 2.44l-.355.505.195.472a4.353 4.353 0 0 1 .006 3.245c-.666 1.603-2.316 2.674-4.097 2.674h-.004a4.076 4.076 0 0 1-1.573-.298c-2.217-.91-3.281-3.457-2.243-5.983l.177-.445-9.97-5.45c1.346-1.115 3.064-3.046 3.99-4.274l8.21 4.29.197-.469c.86-2.098 3.482-3.219 5.665-2.372a4.36 4.36 0 0 1 2.38 5.665zm.837-15.02a4.352 4.352 0 0 1-2.36 2.341c-1.969.837-4.737-.143-5.792-2.686l-6.79.96c.161-.984.235-1.904.235-2.79 0-1.011-.09-2.035-.278-3.126l4.47-.823-.231-.566a4.349 4.349 0 0 1 2.37-5.668c2.162-.887 4.797.278 5.661 2.382.422 1.028.425 2.179-.114 3.544l.117.599.459.194a4.224 4.224 0 0 1 2.27 2.326 4.217 4.217 0 0 1-.017 3.312z"/></g></svg>
