<svg width="80" height="80" viewBox="0 0 1300 1300" xmlns="http://www.w3.org/2000/svg" xmlns:xlink="http://www.w3.org/1999/xlink"><title>Vision 3 • création de vidéos de formation Lille</title><defs><path d="M1199.226.414H.687v537.56C137.951 718.946 355.3 835.84 599.957 835.84c244.66 0 462.006-116.894 599.27-297.866V.414z" id="a"/><linearGradient x1="50%" y1="100%" x2="50%" y2="42.864%" id="c"><stop stop-color="#0012BF" offset="0%"/><stop stop-color="#3515D0" stop-opacity=".818" offset="18.22%"/><stop stop-color="#6A19E1" stop-opacity=".615" offset="38.49%"/><stop stop-color="#931BEE" stop-opacity=".425" offset="57.5%"/><stop stop-color="#B11DF7" stop-opacity=".253" offset="74.68%"/><stop stop-color="#C31FFD" stop-opacity=".106" offset="89.41%"/><stop stop-color="#C91FFF" stop-opacity="0" offset="100%"/></linearGradient><path id="d" d="M.686 987.416L599.958.414l599.268 987.002z"/><linearGradient x1="50%" y1="90.309%" x2="50%" y2="33.173%" id="e"><stop stop-color="#5A00FF" offset="9.7%"/><stop stop-color="#5600FF" stop-opacity=".748" offset="29.45%"/><stop stop-color="#5000FF" stop-opacity="0" offset="88.01%"/></linearGradient><linearGradient x1="50%" y1="-13.403%" x2="50%" y2="98.597%" id="g"><stop stop-color="#FAA519" offset="0%"/><stop stop-color="#FA730F" offset="100%"/></linearGradient></defs><g fill="none" fill-rule="evenodd"><g transform="translate(50)"><path d="M.686 987.416L599.958.414l599.268 987.002z" fill="#4916A1"/><mask id="b" fill="#fff"><use xlink:href="#a"/></mask><g mask="url(#b)"><path d="M.686 987.416L599.958.414l599.268 987.002z" fill="url(#c)"/><mask id="f" fill="#fff"><use xlink:href="#d"/></mask><path fill="url(#e)" mask="url(#f)" d="M-.194.414h1198.541v987.003H-.194z"/></g><path d="M926.771 950.637l-50.414-5.933-45.078-187.424s-120.402-88.966-132.272-98.455c5.934-24.914 10.683-74.737 10.683-74.737l163.7-85.41s-62.87-124.557-78.883-155.398c16.012-16.608 26.687-41.522 26.687-41.522s-17.2-17.791-22.54-22.538c-30.075 45.366-69.475 72.453-105.255 88.66l38.828 83.34-54.57 11.863V374.44c-43.229 16.47-77.702 17.475-77.702 17.475s-34.474-1.006-77.704-17.475v88.642l-54.566-11.862 38.825-83.34c-35.78-16.208-75.177-43.295-105.256-88.661-5.337 4.747-22.539 22.538-22.539 22.538s10.678 24.915 26.691 41.522c-16.013 30.841-78.886 155.398-78.886 155.398l163.702 85.41s4.75 49.824 10.68 74.737c-11.866 9.489-132.27 98.455-132.27 98.455l-45.077 187.424-50.414 5.933-11.863 36.78h181.494l40.93-167.855 116.252-72.363 116.252 72.363 40.93 167.855h181.496l-11.86-36.78z" fill="url(#g)"/><path d="M599.957 180.318s-113.246-6.615-195.078 103.737c0 0 64.06 107.872 195.078 107.872 131.017 0 195.078-107.872 195.078-107.872-81.832-110.353-195.078-103.737-195.078-103.737z" fill="#FFF"/><path d="M599.956 398.828c-133.402 0-200.355-110.135-201.015-111.247l-2.34-3.947 2.73-3.69c75.247-101.464 177.23-106.605 196.907-106.605 1.856 0 3.12.043 3.717.066.598-.023 1.86-.066 3.716-.066 19.68 0 121.664 5.14 196.907 106.605l2.733 3.69-2.341 3.947c-.66 1.112-67.61 111.247-201.014 111.247zM413.302 284.344c12.841 18.824 75.128 100.68 186.654 100.68 111.75 0 173.857-81.846 186.659-100.673-70.987-92.474-164.673-97.21-182.943-97.21-2.062 0-3.216.058-3.321.066l-.386.021-.4-.021c-.109-.008-1.263-.066-3.327-.066-18.27 0-111.95 4.747-182.936 97.203z" fill="#4916A1"/><ellipse fill="#FA9619" cx="599.958" cy="286.084" rx="63.838" ry="63.838"/><ellipse fill="#4916A1" cx="599.957" cy="286.084" rx="34.375" ry="34.375"/><ellipse fill="#FEFEFE" cx="573.351" cy="247.968" rx="34.374" ry="34.374"/></g><g fill="#534963"><path d="M155.663 1241.598l-77.34-214.748h-26.62l90.65 251.801h26.617l90.65-251.8h-26.621zM442.66 1159.352l-9.662-1.813-6.094-1.218c-3.628-.604-6.955-1.26-9.895-1.95-3.043-.707-5.072-1.163-6.026-1.354l-1.21-.3-.489-.043c-10.12-2.163-18.55-6.46-25.057-12.774-6.447-6.248-9.716-13.195-9.716-20.648 0-6.295 2.232-12.158 6.638-17.426 4.482-5.357 10.57-9.707 18.094-12.93 7.553-3.238 15.971-4.88 25.02-4.88 11.192 0 21.497 2.637 30.629 7.837 9.034 5.152 14.983 11.67 17.686 19.38l.448 1.277 22.509-7.841-.432-1.275c-4.32-12.753-13.215-23.274-26.439-31.268-13.155-7.957-28.093-11.992-44.402-11.992-13.243 0-25.647 2.689-36.87 7.993-11.243 5.317-20.269 12.53-26.824 21.44-6.595 8.963-9.94 18.95-9.94 29.686 0 13.415 5.217 25.588 15.503 36.177 10.202 10.513 23.524 17.501 39.601 20.775 2.214.85 7.808 2.047 17.06 3.653l15.45 3.033c12.375 2.16 22.57 6.928 30.306 14.167 7.641 7.162 11.516 15.376 11.516 24.414 0 7.104-2.492 13.733-7.403 19.703-4.977 6.05-11.824 10.958-20.35 14.582-8.556 3.641-17.995 5.487-28.048 5.487-13.402 0-25.431-3.09-35.752-9.187-10.222-6.032-16.677-13.797-19.19-23.078l-.357-1.326-22.884 6.491.366 1.304c4.102 14.574 13.505 26.639 27.944 35.857 14.365 9.171 31.144 13.82 49.873 13.82 14.242 0 27.614-2.892 39.74-8.596 12.141-5.71 21.93-13.482 29.09-23.098 7.203-9.673 10.855-20.425 10.855-31.96 0-15.022-5.78-28.42-17.182-39.82-11.329-11.327-26.163-18.829-44.106-22.299zM746.61 1074.708c-15.576-9.87-32.965-14.878-51.688-14.878-18.728 0-36.066 5.006-51.536 14.88-15.456 9.865-27.826 23.573-36.763 40.74-8.935 17.15-13.462 36.234-13.462 56.725 0 20.696 4.53 39.833 13.462 56.88 8.943 17.074 21.31 30.78 36.758 40.732 15.475 9.977 32.816 15.036 51.54 15.036 18.72 0 36.11-5.005 51.687-14.878 15.55-9.86 27.971-23.566 36.916-40.743 8.932-17.151 13.462-36.338 13.462-57.027 0-20.483-4.53-39.567-13.462-56.725-8.944-17.172-21.365-30.879-36.915-40.742zm-51.688 186.233c-14.179 0-27.36-3.945-39.172-11.722-11.845-7.798-21.356-18.613-28.269-32.146-6.924-13.542-10.433-28.647-10.433-44.898 0-16.243 3.509-31.297 10.432-44.742 6.912-13.43 16.426-24.197 28.27-31.997 11.814-7.778 24.994-11.722 39.172-11.722 14.177 0 27.412 3.945 39.33 11.724 11.934 7.796 21.493 18.559 28.415 31.994 6.923 13.456 10.434 28.51 10.434 44.743 0 16.242-3.51 31.347-10.434 44.898-6.922 13.536-16.48 24.35-28.414 32.142-11.917 7.78-25.15 11.726-39.331 11.726zM976.33 1240.451L854.2 1065.852l-.406-.58h-25.65v214.41h23.885v-175.177l122.127 174.598.405.578h25.653v-214.409H976.33zM1237.967 1165.698c-7.434-11.986-17.568-21.58-30.395-28.776-12.83-7.194-27.16-11.026-42.986-11.51l78.42-74.461v-24.1h-151.44v25.18h113.667l-89.568 85.613 14.029 20.142c10.07-4.794 20.621-7.192 31.655-7.192 11.51 0 22.063 2.398 31.655 7.192 9.589 4.8 17.144 11.393 22.665 19.784 5.508 8.399 8.27 17.627 8.27 27.697 0 10.073-2.762 19.309-8.27 27.701-5.52 8.396-13.076 14.988-22.665 19.783-9.592 4.802-20.145 7.194-31.655 7.194-13.191 0-25-3.057-35.434-9.172-10.43-6.114-18.043-14.445-22.838-25l-23.023 10.07c6.713 14.874 17.385 26.801 32.015 35.791 14.624 8.997 31.05 13.49 49.28 13.49 16.062 0 30.81-3.54 44.243-10.609 13.432-7.07 24.042-16.664 31.837-28.78 7.791-12.103 11.692-25.596 11.692-40.468-.001-14.388-3.724-27.574-11.154-39.569zM291.355 1018.452h23.882v26.258h-23.882zM535.103 1018.452h23.882v26.258h-23.882zM291.355 1065.272h23.882v214.41h-23.882zM535.103 1065.272h23.882v214.41h-23.882z"/></g></g></svg>
